<svg width="31" height="32" viewBox="0 0 31 32" fill="none" xmlns="http://www.w3.org/2000/svg">
<path fill-rule="evenodd" clip-rule="evenodd" d="M10.6259 0C12.3879 0 13.2652 2.11079 12.0122 3.33564L7.1885 8.0512C5.32332 9.87455 5.10257 12.7781 6.67118 14.8566L6.8157 15.048C8.67293 17.5089 12.2715 17.8506 14.5685 15.7842L15.0781 15.3256C15.8534 14.6281 17.0453 14.6523 17.791 15.3807L27.5403 24.9039C27.5423 24.9059 27.5409 24.9093 27.5381 24.9093C27.5352 24.9093 27.5338 24.9128 27.536 24.9147L27.7156 25.0753L28.2604 25.6074C28.5087 25.85 28.7165 26.1254 28.8795 26.4234C29.1802 26.9731 28.9747 27.6286 28.5508 28.0922L26.8686 29.9323C26.1383 30.731 24.8915 30.7932 24.0837 30.0713L23.7423 29.7663C23.0293 29.129 21.9554 29.093 21.2003 29.6809L18.7587 31.5821C17.9521 32.2101 16.793 32.1211 16.0942 31.3774L14.4702 29.6492C13.6829 28.8114 12.3387 28.8205 11.563 29.6689L10.1744 31.1877C9.45041 31.9795 7.83517 32.3368 6.38542 31.0056L0.0300595 24.9093C0.0109209 24.8922 0 24.8679 0 24.8423V6.80824C0 6.29085 0.208031 5.79469 0.578268 5.42904L5.49806 0.57022C5.86777 0.205093 6.36897 0 6.89153 0H10.6259ZM9.20613 24.8773C9.20353 24.8801 9.20375 24.8845 9.20662 24.8871L9.22948 24.9075C9.23076 24.9086 9.23243 24.9093 9.23417 24.9093C9.24057 24.9093 9.24361 24.9015 9.23886 24.8972L9.21601 24.8768C9.21315 24.8742 9.20872 24.8744 9.20613 24.8773Z" fill="#D5621B"/>
<path d="M24.1086 0C24.6311 0 25.1323 0.205097 25.502 0.570232L30.4217 5.42904C30.792 5.79469 31 6.29085 31 6.80823V24.2264C31 24.6035 30.6908 24.9093 30.3093 24.9093C30.0945 24.9093 29.8941 24.8086 29.7528 24.6487C29.6696 24.5546 29.5827 24.4632 29.4922 24.3747L19.14 14.2626C18.3621 13.5026 18.3583 12.2619 19.1316 11.4973L20.8127 9.83531C21.155 9.49694 21.155 8.94832 20.8127 8.60994C20.4705 8.27156 19.9156 8.27156 19.5733 8.60993L15.8794 12.2619L13.3889 14.5025C11.8575 15.8801 9.45852 15.6524 8.22036 14.0118L8.07595 13.8204C7.03022 12.4347 7.1773 10.499 8.42072 9.28344L17.3409 0.56321C17.71 0.202374 18.2082 0 18.7273 0H24.1086Z" fill="#D5621B"/>
</svg>
