<svg width="156" height="41" viewBox="0 0 156 41" fill="none" xmlns="http://www.w3.org/2000/svg">
<path d="M0.0584755 31.5191V3.56848H3.6863V15.5588H17.8678V3.56848H21.4956V31.5191H17.8678V18.8471H3.6863V31.5191H0.0584755Z" fill="#D5621B"/>
<path d="M26.4317 31.5191V11.7491H29.8946V31.5191H26.4317Z" fill="#D5621B"/>
<path d="M34.536 31.5191V11.7491H38.0401V17.0425L37.1332 17.243C37.3255 16.0667 37.779 15.0508 38.4936 14.1953C39.2356 13.3131 40.0876 12.6314 41.0495 12.1502C42.039 11.6689 43.0009 11.4283 43.9353 11.4283C44.5674 11.4283 45.1721 11.4952 45.7492 11.6288C46.3264 11.7625 46.9173 11.9897 47.5219 12.3106L45.7904 15.3583C45.4606 15.1978 45.0621 15.0642 44.5949 14.9572C44.1552 14.8503 43.7292 14.7968 43.3169 14.7968C42.6573 14.7968 41.9977 14.9171 41.3381 15.1577C40.706 15.3984 40.1289 15.7726 39.6067 16.2806C39.0845 16.7885 38.686 17.4703 38.4111 18.3257C38.3012 18.7 38.205 19.1946 38.1226 19.8095C38.0676 20.3976 38.0401 21.213 38.0401 22.2557V31.5191H34.536Z" fill="#D5621B"/>
<path d="M57.4945 31.8399C55.9005 31.8399 54.4988 31.5859 53.2896 31.078C52.1078 30.5433 51.1184 29.8081 50.3214 28.8724C49.5518 27.9367 48.9609 26.8673 48.5487 25.6643C48.1639 24.4345 47.9715 23.1379 47.9715 21.7745C47.9715 20.411 48.1639 19.1144 48.5487 17.8846C48.9334 16.6281 49.4969 15.5187 50.2389 14.5562C51.0084 13.5938 51.9704 12.8319 53.1247 12.2705C54.279 11.709 55.6257 11.4283 57.1647 11.4283C58.7313 11.4283 60.078 11.6957 61.2048 12.2304C62.3591 12.7383 63.2936 13.4468 64.0081 14.3557C64.7502 15.2647 65.2999 16.2806 65.6571 17.4034C66.0144 18.5263 66.1931 19.6892 66.1931 20.8922C66.1931 20.9992 66.1793 21.2531 66.1518 21.6542C66.1518 22.0284 66.1244 22.3626 66.0694 22.6567H51.4344C51.5169 24.5815 52.094 26.0787 53.1659 27.148C54.2378 28.2174 55.6944 28.7521 57.5358 28.7521C58.7176 28.7521 59.7482 28.5649 60.6277 28.1907C61.5071 27.8164 62.3316 27.2149 63.1012 26.3861L65.5335 28.4714C64.7914 29.2467 64.0081 29.8883 63.1836 30.3962C62.3591 30.8774 61.4796 31.2384 60.5452 31.479C59.6383 31.7196 58.6214 31.8399 57.4945 31.8399ZM62.7301 20.9323C62.7851 20.7185 62.8126 20.5046 62.8126 20.2907C62.8401 20.0768 62.8538 19.863 62.8538 19.6491C62.8538 19.0075 62.7301 18.3658 62.4828 17.7242C62.2629 17.0826 61.9194 16.5078 61.4522 15.9999C61.0124 15.4652 60.4353 15.0508 59.7207 14.7567C59.0336 14.4359 58.2091 14.2755 57.2472 14.2755C56.0654 14.2755 55.0485 14.5429 54.1965 15.0775C53.3445 15.6122 52.6849 16.3207 52.2177 17.2029C51.7505 18.0851 51.4757 19.0609 51.3932 20.1303H63.8845L62.7301 20.9323Z" fill="#D5621B"/>
<path d="M69.74 31.5191V3.56848H79.2219C81.5579 3.56848 83.4406 3.90266 84.8697 4.57101C86.2988 5.21263 87.3432 6.14833 88.0028 7.3781C88.6899 8.58114 89.0335 10.0114 89.0335 11.6689C89.0335 14.2354 88.2777 16.2271 86.7661 17.644C85.2819 19.0342 83.152 19.8095 80.3762 19.9699C79.744 19.9966 79.0982 20.01 78.4386 20.01C77.779 20.01 77.2155 20.01 76.7483 20.01H75.0581V31.5191H69.74ZM85.3644 31.5191L78.15 19.4085L83.5917 18.7669L91.507 31.5191H85.3644ZM75.0581 15.3583H78.6859C79.5929 15.3583 80.4174 15.2647 81.1594 15.0775C81.929 14.8637 82.5474 14.5028 83.0146 13.9948C83.4818 13.4601 83.7154 12.7116 83.7154 11.7491C83.7154 10.76 83.4818 10.0114 83.0146 9.50347C82.5474 8.99552 81.929 8.66134 81.1594 8.50094C80.4174 8.3138 79.5929 8.22023 78.6859 8.22023H75.0581V15.3583Z" fill="#D5621B"/>
<path d="M93.4571 31.5191V11.7491H98.569V31.5191H93.4571Z" fill="#D5621B"/>
<path d="M110.941 40.1007C107.918 40.1007 105.527 39.5794 103.768 38.5368C102.037 37.4942 101.171 36.0505 101.171 34.2059C101.171 34.0454 101.185 33.8449 101.212 33.6043C101.24 33.3905 101.281 33.1766 101.336 32.9627L107.025 29.514L108.303 30.9175L105.706 34.0053C105.678 34.0855 105.665 34.1524 105.665 34.2059C105.665 34.2593 105.665 34.3128 105.665 34.3663C105.665 35.1148 106.146 35.6896 107.107 36.0906C108.069 36.4916 109.347 36.6921 110.941 36.6921C112.288 36.6921 113.319 36.5184 114.033 36.1708C114.748 35.85 115.105 35.3688 115.105 34.7272C115.105 34.3796 115.009 34.0989 114.817 33.885C114.624 33.6712 114.308 33.4974 113.868 33.3637C113.429 33.2301 112.852 33.1097 112.137 33.0028C111.45 32.8959 110.612 32.7756 109.622 32.6419C108.358 32.5082 107.121 32.2543 105.912 31.88C104.703 31.5324 103.7 31.0111 102.903 30.316C102.105 29.5942 101.707 28.6451 101.707 27.4688C101.707 26.4262 102.078 25.4771 102.82 24.6216C103.562 23.7394 104.538 23.0176 105.747 22.4562L108.221 24.381C107.479 24.488 106.915 24.7286 106.53 25.1029C106.173 25.4771 105.994 25.9183 105.994 26.4262C105.994 26.854 106.173 27.2015 106.53 27.4688C106.888 27.7094 107.396 27.8966 108.056 28.0303C108.715 28.1639 109.499 28.2842 110.406 28.3912C111.807 28.5783 113.099 28.7788 114.281 28.9927C115.49 29.2066 116.534 29.514 117.414 29.915C118.321 30.2893 119.008 30.8106 119.475 31.479C119.97 32.1473 120.217 33.0162 120.217 34.0855C120.217 36.0371 119.406 37.5209 117.785 38.5368C116.191 39.5794 113.91 40.1007 110.941 40.1007ZM110.529 25.9851C108.825 25.9851 107.327 25.6776 106.036 25.0628C104.771 24.4211 103.782 23.5656 103.067 22.4963C102.353 21.4002 101.996 20.1437 101.996 18.7268C101.996 17.2564 102.367 15.9731 103.109 14.877C103.878 13.7542 104.895 12.8853 106.159 12.2705C107.451 11.6556 108.853 11.3481 110.364 11.3481C111.848 11.3481 113.223 11.6556 114.487 12.2705C115.779 12.8853 116.809 13.7676 117.579 14.9171C118.376 16.04 118.774 17.3633 118.774 18.8872C118.774 20.3308 118.417 21.5873 117.702 22.6567C117.015 23.6993 116.053 24.5147 114.817 25.1029C113.58 25.691 112.151 25.9851 110.529 25.9851ZM110.406 22.0552C111.505 22.0552 112.316 21.7344 112.838 21.0927C113.387 20.4244 113.662 19.6224 113.662 18.6867C113.662 17.7242 113.374 16.9489 112.797 16.3608C112.219 15.7459 111.422 15.4385 110.406 15.4385C109.389 15.4385 108.578 15.7459 107.973 16.3608C107.396 16.9757 107.107 17.751 107.107 18.6867C107.107 19.6224 107.382 20.4244 107.932 21.0927C108.482 21.7344 109.306 22.0552 110.406 22.0552ZM117.373 15.9197L113.704 13.5938L118.403 9.94458L121 13.0324L117.373 15.9197Z" fill="#D5621B"/>
<path d="M122.668 31.5191V3.56848H127.822V16.2405L126.956 16.3608C127.313 15.1577 127.835 14.1953 128.522 13.4735C129.237 12.7249 130.048 12.1903 130.955 11.8694C131.889 11.5219 132.824 11.3481 133.758 11.3481C136.067 11.3481 137.867 11.9897 139.158 13.273C140.478 14.5295 141.137 16.3073 141.137 18.6065V31.5191H135.984V20.4511C135.984 18.7936 135.682 17.5906 135.077 16.842C134.473 16.0667 133.524 15.6791 132.233 15.6791C130.776 15.6791 129.677 16.187 128.935 17.2029C128.193 18.2188 127.822 19.8362 127.822 22.0552V31.5191H122.668Z" fill="#D5621B"/>
<path d="M152.25 31.9201C151.151 31.9201 150.134 31.7196 149.2 31.3186C148.265 30.9175 147.509 30.2626 146.932 29.3536C146.383 28.4446 146.108 27.2282 146.108 25.7044V7.13749L151.302 4.45071V24.3409C151.302 25.4905 151.453 26.3594 151.756 26.9475C152.085 27.5357 152.718 27.8297 153.652 27.8297C153.927 27.8297 154.229 27.803 154.559 27.7495C154.916 27.6961 155.301 27.6159 155.713 27.5089V31.3186C155.136 31.5324 154.559 31.6795 153.982 31.7597C153.405 31.8666 152.828 31.9201 152.25 31.9201ZM142.398 15.639V11.7491H155.713V15.639H142.398Z" fill="#D5621B"/>
<path d="M27.6798 3.79893C27.8961 3.1833 28.7705 3.16465 29.027 3.743L29.0487 3.79928L29.3405 4.62952C29.4074 4.81992 29.5155 4.99415 29.6575 5.14047C29.7995 5.28678 29.9721 5.40178 30.1636 5.47769L30.2421 5.50618L31.0956 5.78973C31.7285 6.0001 31.7477 6.85073 31.1535 7.10016L31.0956 7.12126L30.2421 7.40516C30.0463 7.47018 29.8671 7.5753 29.7166 7.71342C29.5662 7.85155 29.4479 8.01946 29.3698 8.20584L29.3405 8.28183L29.049 9.11241C28.8327 9.72805 27.9583 9.74669 27.7022 9.1687L27.6798 9.11241L27.3883 8.28218C27.3215 8.09171 27.2134 7.91741 27.0714 7.77103C26.9294 7.62465 26.7568 7.50961 26.5652 7.43366L26.4871 7.40516L25.6335 7.12162C25.0003 6.91124 24.9811 6.06061 25.5757 5.81154L25.6335 5.78973L26.4871 5.50618C26.6828 5.44112 26.8619 5.33598 27.0123 5.19786C27.1627 5.05974 27.281 4.89184 27.359 4.7055L27.3883 4.62952L27.6798 3.79893Z" fill="#D5621B"/>
<ellipse cx="96.0359" cy="7.08226" rx="2.57658" ry="2.50633" fill="#D5621B"/>
</svg>
